<?xml version="1.0" standalone="no"?>
<!DOCTYPE svg PUBLIC "-//W3C//DTD SVG 20010904//EN"
 "http://www.w3.org/TR/2001/REC-SVG-20010904/DTD/svg10.dtd">
<svg version="1.0" xmlns="http://www.w3.org/2000/svg"
 width="700.000000pt" height="700.000000pt" viewBox="0 0 700.000000 700.000000"
 preserveAspectRatio="xMidYMid meet">
<metadata>
Created by potrace 1.14, written by Peter Selinger 2001-2017
</metadata>
<g transform="translate(0.000000,700.000000) scale(0.100000,-0.100000)"
fill="#000000" stroke="none">
<path d="M960 6980 c-242 -46 -441 -150 -615 -323 -182 -181 -295 -405 -333
-657 -9 -58 -9 -4941 0 -5000 18 -125 68 -274 129 -387 114 -210 324 -410 526
-499 32 -14 72 -32 88 -39 26 -12 63 -22 220 -62 17 -4 1139 -9 2495 -10 2688
-3 2530 -6 2718 54 110 34 230 95 331 168 79 57 214 189 249 243 9 15 19 29
22 32 12 10 67 106 97 170 47 98 80 204 101 325 4 22 7 1154 7 2515 0 2384 -1
2478 -19 2555 -41 177 -91 293 -181 425 -179 263 -434 426 -775 497 -19 4
-1144 8 -2500 9 -2332 2 -2470 1 -2560 -16z"/>
</g>
</svg>
