<?xml version="1.0" standalone="no"?>
<!DOCTYPE svg PUBLIC "-//W3C//DTD SVG 20010904//EN"
 "http://www.w3.org/TR/2001/REC-SVG-20010904/DTD/svg10.dtd">
<svg version="1.0" xmlns="http://www.w3.org/2000/svg"
 width="600.000000pt" height="600.000000pt" viewBox="0 0 600.000000 600.000000"
 preserveAspectRatio="xMidYMid meet">
<metadata>
Created by potrace 1.14, written by Peter Selinger 2001-2017
</metadata>
<g transform="translate(0.000000,600.000000) scale(0.100000,-0.100000)"
fill="#000000" stroke="none">
<path d="M3586 5224 c-174 -31 -356 -110 -496 -215 -91 -68 -221 -202 -280
-289 -179 -264 -247 -597 -184 -905 29 -144 29 -135 3 -135 -85 -1 -1389 -130
-1411 -140 -15 -7 -35 -29 -44 -48 -14 -29 -14 -41 -5 -73 16 -52 49 -73 116
-71 29 1 369 31 756 67 478 45 705 63 707 56 13 -40 117 -178 195 -258 180
-186 371 -287 662 -350 l40 -9 69 -742 c38 -408 66 -745 64 -748 -5 -5 -2119
-204 -2168 -204 l-25 0 -84 903 c-46 496 -87 924 -92 951 -11 59 -40 93 -85
102 -76 14 -128 -50 -119 -146 9 -86 164 -1756 171 -1840 12 -150 38 -190 120
-190 24 0 575 50 1224 110 650 61 1188 110 1197 110 8 0 30 15 49 34 27 27 34
42 34 74 0 22 -31 378 -70 791 -38 413 -70 759 -70 769 0 17 12 21 89 31 519
66 930 462 1027 986 24 132 15 365 -20 495 -107 404 -395 712 -790 844 -164
55 -407 71 -580 40z m459 -223 c88 -23 239 -92 311 -142 67 -46 177 -153 231
-223 58 -77 136 -239 165 -342 18 -66 22 -107 22 -244 1 -143 -2 -176 -22
-250 -91 -333 -337 -592 -657 -693 -102 -32 -245 -54 -254 -39 -3 6 -19 149
-35 319 -18 192 -34 318 -42 335 -8 15 -28 35 -44 43 -28 15 -60 13 -408 -20
-207 -19 -391 -35 -409 -35 -31 0 -33 3 -52 65 -52 166 -50 383 5 556 112 356
378 599 744 680 115 26 329 21 445 -10z m-465 -1448 c0 -5 9 -111 21 -236 12
-125 19 -230 15 -234 -10 -10 -105 15 -194 52 -99 40 -227 124 -303 197 -66
63 -142 158 -134 166 3 4 131 18 283 33 336 32 312 31 312 22z"/>
</g>
</svg>
