<?xml version="1.0" standalone="no"?>
<!DOCTYPE svg PUBLIC "-//W3C//DTD SVG 20010904//EN"
 "http://www.w3.org/TR/2001/REC-SVG-20010904/DTD/svg10.dtd">
<svg version="1.0" xmlns="http://www.w3.org/2000/svg"
 width="700.000000pt" height="700.000000pt" viewBox="0 0 700.000000 700.000000"
 preserveAspectRatio="xMidYMid meet">
<metadata>
Created by potrace 1.14, written by Peter Selinger 2001-2017
</metadata>
<g transform="translate(0.000000,700.000000) scale(0.100000,-0.100000)"
fill="#000000" stroke="none">
<path d="M4285 6274 c-549 -59 -1016 -383 -1250 -869 -102 -213 -143 -381
-152 -620 -6 -171 9 -314 46 -447 l18 -67 -41 -6 c-23 -3 -239 -23 -481 -45
-242 -22 -485 -44 -540 -50 -55 -6 -248 -24 -430 -41 -358 -33 -370 -36 -412
-99 -46 -66 -18 -155 61 -194 35 -17 47 -18 155 -7 155 15 1127 105 1466 136
149 14 284 27 302 29 30 4 35 1 70 -57 227 -379 609 -647 1031 -725 107 -20
97 -3 112 -177 5 -66 23 -264 40 -440 40 -437 86 -924 106 -1138 9 -98 14
-180 12 -182 -6 -6 -112 -17 -578 -60 -206 -19 -571 -53 -810 -75 -239 -22
-480 -44 -535 -50 -213 -22 -854 -80 -877 -80 l-24 0 -22 248 c-13 136 -34
366 -48 512 -44 473 -73 789 -104 1125 -55 600 -54 593 -123 635 -67 41 -154
12 -191 -63 -20 -42 -30 92 99 -1302 24 -264 61 -658 81 -875 43 -479 46 -495
90 -536 18 -17 45 -34 61 -37 15 -3 118 3 228 13 196 19 540 51 1180 110 176
16 442 41 590 55 149 14 464 43 700 65 237 22 445 42 463 45 43 8 99 58 111
101 7 24 -4 176 -40 556 -27 288 -69 745 -95 1017 -50 541 -51 511 16 511 19
0 72 7 118 15 325 57 605 204 837 439 292 297 445 669 445 1086 0 421 -154
795 -450 1091 -230 230 -510 377 -830 434 -85 16 -330 27 -405 19z m264 -284
c431 -45 804 -298 1000 -679 248 -483 165 -1063 -207 -1453 -210 -219 -490
-358 -780 -386 -79 -8 -82 -7 -82 12 -1 12 -18 197 -38 412 -42 434 -44 443
-117 478 l-39 20 -511 -48 c-280 -25 -517 -47 -526 -46 -36 0 -89 256 -89 430
0 515 316 983 794 1175 192 78 389 106 595 85z m-409 -1902 c1 -7 13 -145 29
-307 l27 -293 -40 5 c-59 8 -188 53 -281 98 -166 79 -322 203 -437 347 -32 40
-58 77 -58 81 0 4 87 16 193 26 197 18 546 52 560 54 4 0 7 -5 7 -11z"/>
</g>
</svg>
